HIERARCHY
ROOT joint_Root
{
	OFFSET 0.0 0.0 0.0
	CHANNELS 6 Xposition Yposition Zposition Zrotation Xrotation Yrotation 
	JOINT Hips
	{
		OFFSET -17.1583 93.1646 452.98
		CHANNELS 6 Xposition Yposition Zposition Zrotation Xrotation Yrotation 
		JOINT Spine
		{
			OFFSET 15.7357 0.0 0.0
			CHANNELS 6 Xposition Yposition Zposition Zrotation Xrotation Yrotation 
			JOINT Chest
			{
				OFFSET 8.98455 -0.406207 0.0
				CHANNELS 6 Xposition Yposition Zposition Zrotation Xrotation Yrotation 
				JOINT Neck
				{
					OFFSET 16.3773 0.0 0.0
					CHANNELS 6 Xposition Yposition Zposition Zrotation Xrotation Yrotation 
					JOINT Head
					{
						OFFSET 6.45672 0.0 0.0
						CHANNELS 6 Xposition Yposition Zposition Zrotation Xrotation Yrotation 
						End Site
						{
							OFFSET 0.0 0.0 0.0
						}
					}
				}
				JOINT Shoulder_L
				{
					OFFSET 12.9942 -0.242716 4.98039
					CHANNELS 6 Xposition Yposition Zposition Zrotation Xrotation Yrotation 
					JOINT UpperArm_L
					{
						OFFSET 5.34809 0.0 0.0
						CHANNELS 6 Xposition Yposition Zposition Zrotation Xrotation Yrotation 
						JOINT LowerArm_L
						{
							OFFSET 24.3286 1.87007e-05 0.0
							CHANNELS 6 Xposition Yposition Zposition Zrotation Xrotation Yrotation 
							JOINT Hand_L
							{
								OFFSET 22.2916 0.0 0.0
								CHANNELS 6 Xposition Yposition Zposition Zrotation Xrotation Yrotation 
								End Site
								{
									OFFSET 0.0 0.0 0.0
								}
							}
						}
					}
				}
				JOINT Shoulder_R
				{
					OFFSET 12.9945 -0.242716 -4.98039
					CHANNELS 6 Xposition Yposition Zposition Zrotation Xrotation Yrotation 
					JOINT UpperArm_R
					{
						OFFSET -5.34813 0.0 0.0
						CHANNELS 6 Xposition Yposition Zposition Zrotation Xrotation Yrotation 
						JOINT LowerArm_R
						{
							OFFSET -24.3289 0.000322201 0.0
							CHANNELS 6 Xposition Yposition Zposition Zrotation Xrotation Yrotation 
							JOINT Hand_R
							{
								OFFSET -22.2915 -0.000108084 0.0
								CHANNELS 6 Xposition Yposition Zposition Zrotation Xrotation Yrotation 
								End Site
								{
									OFFSET 0.0 0.0 0.0
								}
							}
						}
					}
				}
			}
		}
		JOINT UpperLeg_L
		{
			OFFSET -2.19248 -6.46944 0.0
			CHANNELS 6 Xposition Yposition Zposition Zrotation Xrotation Yrotation 
			JOINT LowerLeg_L
			{
				OFFSET 39.0811 0.0 -1.23785e-05
				CHANNELS 6 Xposition Yposition Zposition Zrotation Xrotation Yrotation 
				JOINT Foot_L
				{
					OFFSET 40.9854 0.0 -1.26872e-05
					CHANNELS 6 Xposition Yposition Zposition Zrotation Xrotation Yrotation 
					JOINT Toes_L
					{
						OFFSET 11.7543 0.0 0.0
						CHANNELS 6 Xposition Yposition Zposition Zrotation Xrotation Yrotation 
						End Site
						{
							OFFSET 0.0 0.0 0.0
						}
					}
				}
			}
		}
		JOINT UpperLeg_R
		{
			OFFSET -2.19251 6.46944 0.0
			CHANNELS 6 Xposition Yposition Zposition Zrotation Xrotation Yrotation 
			JOINT LowerLeg_R
			{
				OFFSET -39.0811 -0.00228153 -0.0401928
				CHANNELS 6 Xposition Yposition Zposition Zrotation Xrotation Yrotation 
				JOINT Foot_R
				{
					OFFSET -40.9854 0.0 0.0
					CHANNELS 6 Xposition Yposition Zposition Zrotation Xrotation Yrotation 
					JOINT Toes_R
					{
						OFFSET -11.7543 0.0 0.0
						CHANNELS 6 Xposition Yposition Zposition Zrotation Xrotation Yrotation 
						End Site
						{
							OFFSET 0.0 0.0 0.0
						}
					}
				}
			}
		}
	}
}
MOTION
Frames:	6
Frame Time:	0.0333333
0.000000 0.000000 0.000000 0.000000 0.000000 -0.000000 1.726630 84.260100 -41.499500 85.448300 2.206280 -10.011400 15.735700 0.000005 -0.000001 93.126300 83.613800 -89.860400 8.984550 -0.406207 -0.000000 4.978490 0.615992 6.497630 16.377300 -0.000001 -0.000001 -8.400150 2.928250 -1.873630 6.456720 -0.000001 -0.000000 -0.688858 2.732700 -5.456740 12.994200 -0.242716 4.980390 -93.063300 9.357060 -71.780400 5.348090 -0.000007 -0.000001 -62.804100 -3.663110 5.419380 24.328600 0.000019 0.000005 11.601600 37.301300 -18.710700 22.291600 -0.000001 0.000005 -3.612490 4.942580 8.501510 12.994500 -0.242716 -4.980390 88.656700 5.469070 -76.177800 -5.348130 -0.000001 -0.000004 -60.507700 12.609600 -0.337841 -24.328900 0.000322 -0.000009 4.138750 8.926940 -24.985700 -22.291500 -0.000108 -0.000004 -0.660422 5.298790 0.331435 -2.192480 -6.469440 -0.000000 -174.856000 -2.583720 -41.874700 39.081100 -0.000007 -0.000012 0.120577 0.037380 107.218000 40.985400 -0.000006 -0.000013 -3.389030 -3.629400 -49.470900 11.754300 -0.000000 0.000003 0.002181 0.054406 -14.370000 -2.192510 6.469440 -0.000001 -171.070000 5.789990 155.953000 -39.081100 -0.002282 -0.040193 0.002752 0.000363 53.077300 -40.985400 0.000008 0.000006 -5.590550 -1.819530 -90.136400 -11.754300 -0.000006 -0.000006 0.000844 0.151991 -10.409200
0.000000 0.000000 0.000000 0.000000 0.000000 -0.000000 2.572870 86.557600 -31.909100 88.024400 0.092253 -11.421300 15.735700 0.000005 -0.000001 104.884000 84.291200 -103.074000 8.984550 -0.406207 -0.000000 3.229410 2.857850 3.536670 16.377300 -0.000001 -0.000001 -6.535530 2.047960 -0.540152 6.456720 -0.000001 -0.000000 0.310546 1.731150 -4.149080 12.994200 -0.242716 4.980390 -93.042300 8.616650 -70.467300 5.348090 -0.000007 -0.000001 -54.634800 -17.168400 11.326800 24.328600 0.000019 0.000005 0.974554 41.476700 -1.471990 22.291600 -0.000001 0.000005 -5.238860 4.734340 12.455500 12.994500 -0.242716 -4.980390 88.895900 4.420860 -75.961700 -5.348130 -0.000001 -0.000004 -60.099400 15.554300 -2.396030 -24.328900 0.000322 -0.000009 5.769990 5.968110 -44.285600 -22.291500 -0.000108 -0.000004 12.562300 5.500380 -6.149360 -2.192480 -6.469440 -0.000000 -179.176000 -2.555980 -48.500000 39.081100 -0.000007 -0.000012 0.063650 0.012015 100.680000 40.985400 -0.000006 -0.000013 -4.007640 -5.487020 -56.952000 11.754300 -0.000000 0.000003 0.002370 0.065584 -13.916800 -2.192510 6.469440 -0.000001 -175.963000 6.046590 164.920000 -39.081100 -0.002282 -0.040193 -0.004909 0.008299 44.568600 -40.985400 0.000008 0.000006 -7.415660 1.537480 -83.356600 -11.754300 -0.000006 -0.000006 0.000063 0.001061 -16.530700
0.000000 0.000000 0.000000 0.000000 0.000000 -0.000000 3.754370 89.583800 -22.173100 90.974600 -2.940510 -13.927900 15.735700 0.000005 -0.000001 121.594000 84.988500 -121.528000 8.984550 -0.406207 -0.000000 0.773254 5.245090 0.096777 16.377300 -0.000001 -0.000001 -5.690780 1.595650 0.602153 6.456720 -0.000001 -0.000000 1.607600 0.500205 -2.683620 12.994200 -0.242716 4.980390 -92.429400 6.657020 -69.896100 5.348090 -0.000007 -0.000001 -45.562300 -21.596900 20.662400 24.328600 0.000019 0.000005 -0.000366 39.457000 -0.000000 22.291600 -0.000001 0.000005 -1.652590 3.961050 24.630700 12.994500 -0.242716 -4.980390 89.319400 2.859670 -76.611800 -5.348130 -0.000001 -0.000004 -61.885800 13.462500 -3.286130 -24.328900 0.000322 -0.000009 -0.683846 -0.390784 -59.094100 -22.291500 -0.000108 -0.000004 21.153400 5.625820 -12.903800 -2.192480 -6.469440 -0.000000 176.235000 -2.074870 -52.802100 39.081100 -0.000007 -0.000012 0.054045 -0.001927 87.948300 40.985400 -0.000006 -0.000013 -4.250890 -7.063730 -62.459100 11.754300 -0.000000 0.000003 0.002331 0.062813 -14.029100 -2.192510 6.469440 -0.000001 178.230000 6.561780 172.158000 -39.081100 -0.002282 -0.040193 0.014733 -0.017231 33.576800 -40.985400 0.000008 0.000006 -8.452610 3.944980 -68.685500 -11.754300 -0.000006 -0.000006 -0.033305 -0.232229 -26.095400
0.000000 0.000000 0.000000 0.000000 0.000000 -0.000000 4.693410 92.396600 -12.607500 93.077800 -4.939340 -16.968200 15.735700 0.000005 -0.000001 140.805000 85.351000 -142.156000 8.984550 -0.406207 -0.000000 -1.806830 7.316990 -2.589430 16.377300 -0.000001 -0.000001 -5.936860 1.053890 1.206640 6.456720 -0.000001 -0.000000 2.679030 -1.263960 -0.667549 12.994200 -0.242716 4.980390 -91.596400 4.174720 -69.049100 5.348090 -0.000007 -0.000001 -39.111700 -21.918800 27.505400 24.328600 0.000019 0.000005 0.000000 37.598900 -0.000000 22.291600 -0.000001 0.000005 8.429970 3.400280 32.168600 12.994500 -0.242716 -4.980390 89.609400 1.790980 -77.695000 -5.348130 -0.000001 -0.000004 -64.156000 9.203990 -3.574990 -24.328900 0.000322 -0.000009 -6.713630 -2.496680 -69.674300 -22.291500 -0.000108 -0.000004 22.238400 5.682700 -19.896700 -2.192480 -6.469440 -0.000000 174.194000 -0.429431 -54.935500 39.081100 -0.000007 -0.000012 0.069290 -0.024114 70.806600 40.985400 -0.000006 -0.000013 -4.220550 -5.865360 -65.516600 11.754300 -0.000000 0.000003 0.002065 0.049257 -14.578800 -2.192510 6.469440 -0.000001 174.328000 7.863820 176.923000 -39.081100 -0.002282 -0.040193 0.043733 -0.095175 23.009100 -40.985400 0.000008 0.000006 -5.807950 4.494090 -49.339200 -11.754300 -0.000006 -0.000006 -0.074688 -0.376814 -32.195200
0.000000 0.000000 0.000000 0.000000 0.000000 -0.000000 4.747880 94.157400 -2.733100 91.908100 -4.088960 -16.947800 15.735700 0.000005 -0.000001 145.837000 84.819400 -147.128000 8.984550 -0.406207 -0.000000 -1.855200 8.679450 -2.444310 16.377300 -0.000001 -0.000001 -7.250310 0.162200 1.294190 6.456720 -0.000001 -0.000000 2.580080 -3.273760 0.647510 12.994200 -0.242716 4.980390 -91.231800 3.135990 -68.542600 5.348090 -0.000007 -0.000001 -35.797300 -20.082800 29.198300 24.328600 0.000019 0.000005 -0.000488 29.864500 -0.000000 22.291600 -0.000001 0.000005 24.083100 3.467820 31.396300 12.994500 -0.242716 -4.980390 89.558300 2.142570 -78.348300 -5.348130 -0.000001 -0.000004 -63.752600 6.751560 -3.823540 -24.328900 0.000322 -0.000009 -5.197830 -1.233110 -76.716200 -22.291500 -0.000108 -0.000004 28.786100 5.680620 -22.822600 -2.192480 -6.469440 -0.000000 177.649000 1.662360 -51.582100 39.081100 -0.000007 -0.000012 0.062000 -0.048754 51.818100 40.985400 -0.000006 -0.000013 -5.068200 -0.523633 -68.307200 11.754300 -0.000000 0.000003 0.002141 0.052516 -14.446600 -2.192510 6.469440 -0.000001 175.402000 6.316260 -177.477000 -39.081100 -0.002282 -0.040193 0.049913 -0.149754 17.280500 -40.985400 0.000008 0.000006 -4.310880 1.543910 -33.145200 -11.754300 -0.000006 -0.000006 -0.000427 -0.006894 -16.853800
0.000000 0.000000 0.000000 0.000000 0.000000 -0.000000 4.234350 94.434300 7.394650 89.715700 -1.953510 -14.880300 15.735700 0.000005 -0.000001 141.628000 84.153000 -142.193000 8.984550 -0.406207 -0.000000 -0.456686 9.206510 -1.094600 16.377300 -0.000001 -0.000001 -8.471220 -0.799258 1.348790 6.456720 -0.000001 -0.000000 1.439230 -4.820680 0.754267 12.994200 -0.242716 4.980390 -91.038000 2.672500 -68.765800 5.348090 -0.000007 -0.000001 -36.316700 -18.286800 27.877300 24.328600 0.000019 0.000005 0.144541 26.695200 -0.321740 22.291600 -0.000001 0.000005 36.814100 3.508180 30.835100 12.994500 -0.242716 -4.980390 89.505600 2.445410 -78.566300 -5.348130 -0.000001 -0.000004 -63.143500 6.260620 -3.856350 -24.328900 0.000322 -0.000009 -1.861400 -0.396456 -77.951000 -22.291500 -0.000108 -0.000004 37.424800 5.674750 -24.194900 -2.192480 -6.469440 -0.000000 -177.661000 3.720930 -45.100100 39.081100 -0.000007 -0.000012 0.011475 -0.017440 33.341900 40.985400 -0.000006 -0.000013 -6.035510 4.352730 -71.856100 11.754300 -0.000000 0.000003 0.002119 0.051540 -14.486200 -2.192510 6.469440 -0.000001 179.413000 4.354520 -173.381000 -39.081100 -0.002282 -0.040193 0.054407 -0.138023 20.311000 -40.985400 0.000008 0.000006 -0.882097 -1.578710 -23.981900 -11.754300 -0.000006 -0.000006 0.000270 0.162999 -9.962400
